name C:\Users\r0593348\3dpredictsim\Results\batch_windlass\Pog_s1_tmt_bCst_d00_k1000_WL10_ig24_act_TTC.mot
datacolumns 128
datarows 4
range 1.88259324 1.92024510
endheader
time	pelvis_tilt	pelvis_list	pelvis_rotation	pelvis_tx	pelvis_ty	pelvis_tz	hip_flexion_l	hip_adduction_l	hip_rotation_l	hip_flexion_r	hip_adduction_r	hip_rotation_r	knee_angle_l	knee_angle_r	ankle_angle_l	ankle_angle_r	subtalar_angle_l	subtalar_angle_r	tmt_angle_l	tmt_angle_r	mtp_angle_l	mtp_angle_r	lumbar_extension	lumbar_bending	lumbar_rotation	arm_flex_l	arm_add_l	arm_rot_l	arm_flex_r	arm_add_r	arm_rot_r	elbow_flex_l	elbow_flex_r	pro_sup_l	pro_sup_r	glut_med1_l/activation	glut_med2_l/activation	glut_med3_l/activation	glut_min1_l/activation	glut_min2_l/activation	glut_min3_l/activation	semimem_l/activation	semiten_l/activation	bifemlh_l/activation	bifemsh_l/activation	sar_l/activation	add_long_l/activation	add_brev_l/activation	add_mag1_l/activation	add_mag2_l/activation	add_mag3_l/activation	tfl_l/activation	pect_l/activation	grac_l/activation	glut_max1_l/activation	glut_max2_l/activation	glut_max3_l/activation	iliacus_l/activation	psoas_l/activation	quad_fem_l/activation	gem_l/activation	peri_l/activation	rect_fem_l/activation	vas_med_l/activation	vas_int_l/activation	vas_lat_l/activation	med_gas_l/activation	lat_gas_l/activation	soleus_l/activation	tib_post_l/activation	flex_dig_l/activation	flex_hal_l/activation	tib_ant_l/activation	per_brev_l/activation	per_long_l/activation	per_tert_l/activation	ext_dig_l/activation	ext_hal_l/activation	ercspn_l/activation	intobl_l/activation	extobl_l/activation	glut_med1_r/activation	glut_med2_r/activation	glut_med3_r/activation	glut_min1_r/activation	glut_min2_r/activation	glut_min3_r/activation	semimem_r/activation	semiten_r/activation	bifemlh_r/activation	bifemsh_r/activation	sar_r/activation	add_long_r/activation	add_brev_r/activation	add_mag1_r/activation	add_mag2_r/activation	add_mag3_r/activation	tfl_r/activation	pect_r/activation	grac_r/activation	glut_max1_r/activation	glut_max2_r/activation	glut_max3_r/activation	iliacus_r/activation	psoas_r/activation	quad_fem_r/activation	gem_r/activation	peri_r/activation	rect_fem_r/activation	vas_med_r/activation	vas_int_r/activation	vas_lat_r/activation	med_gas_r/activation	lat_gas_r/activation	soleus_r/activation	tib_post_r/activation	flex_dig_r/activation	flex_hal_r/activation	tib_ant_r/activation	per_brev_r/activation	per_long_r/activation	per_tert_r/activation	ext_dig_r/activation	ext_hal_r/activation	ercspn_r/activation	intobl_r/activation	extobl_r/activation	
          1.88259324	         -2.92592477	          0.41536925	        -10.14500090	          2.35324155	          0.85320463	          0.00286645	         34.18318182	         -1.51196912	         -1.72268008	        -14.91226241	         -2.99477816	          6.13515689	        -20.46367948	        -20.03777371	         -0.09399391	        -14.48101243	          6.22896874	         18.49205101	         -0.11056461	         -3.50575992	          1.12197474	         37.36927908	          0.74320590	          2.81563457	          3.04358732	        -14.40435569	        -13.69213694	          8.58354746	          1.36867997	        -13.49440299	         13.89442761	         21.50113814	         47.30915381	         86.51662706	         86.51662706	          0.05011257	          0.05044390	          0.05297078	          0.05082222	          0.05059936	          0.05055299	          0.10968328	          0.07306072	          0.11432198	          0.06053396	          0.06006327	          0.07215203	          0.05914348	          0.07722429	          0.05204514	          0.07141281	          0.05106234	          0.05132056	          0.08139363	          0.05096808	          0.05013978	          0.05022974	          0.08176693	          0.08113283	          0.19196951	          0.06173397	          0.06466515	          0.05009963	          0.05011916	          0.06627762	          0.06435343	          0.07310770	          0.07310802	          0.07310533	          0.06046775	          0.07305189	          0.07308904	          0.45919872	          0.27820661	          0.18268737	          0.11219845	          0.47805073	          0.14550520	          0.05000628	          0.15739761	          0.14829079	          0.15013618	          0.08840532	          0.06677473	          0.21605373	          0.13664309	          0.09916519	          0.05016928	          0.05001760	          0.05002008	          0.05004544	          0.10695752	          0.05002187	          0.05001755	          0.05002065	          0.05004877	          0.05004009	          0.20666301	          0.05009921	          0.05005440	          0.05154774	          0.05048839	          0.05010109	          0.36837388	          0.40208829	          0.05013050	          0.05686678	          0.08809519	          0.26614262	          0.10617883	          0.10575374	          0.09529908	          0.13905349	          0.21723273	          0.05000341	          0.16236296	          0.19190269	          0.19558531	          0.05003104	          0.49645560	          0.39784236	          0.48276171	          0.42946799	          0.21244540	          0.05000388	          0.05412083	          0.06482086	
          1.89514386	         -2.93016361	          0.41163337	        -10.35150944	          2.37370692	          0.85170483	          0.00247373	         33.77506465	         -1.25673968	         -1.61263124	        -15.13185076	         -3.37692047	          5.87082523	        -20.63593963	        -20.97205762	         -0.30751704	        -18.22951925	          5.65360396	         18.67392403	         -0.13990551	         -3.91842728	          1.35294286	         38.81837306	          0.97128701	          2.58153575	          3.15551128	        -15.90151523	        -13.68828900	          8.88041688	          1.03482623	        -13.54713567	         14.36066492	         21.34823486	         48.24936833	         86.51662706	         86.51662706	          0.06334977	          0.05008624	          0.05003322	          0.05030421	          0.05019936	          0.05013569	          0.09076869	          0.06043930	          0.09457959	          0.05007029	          0.05006694	          0.08837445	          0.10028481	          0.13051306	          0.13936507	          0.10824465	          0.05003640	          0.06716089	          0.06736978	          0.05020615	          0.08317769	          0.11521345	          0.06764455	          0.06711799	          0.17082186	          0.05148455	          0.11268611	          0.05001637	          0.14858247	          0.15036250	          0.13702361	          0.06046120	          0.06046198	          0.06045906	          0.05000839	          0.06042594	          0.06045295	          0.62661366	          0.27616133	          0.15109333	          0.51662813	          0.63400942	          0.44148557	          0.05000400	          0.13017039	          0.12263872	          0.12418202	          0.07312031	          0.05522892	          0.17870206	          0.11302004	          0.08202494	          0.05243682	          0.06927497	          0.06075843	          0.07310549	          0.08848436	          0.12990677	          0.26871478	          0.08621807	          0.05050718	          0.05008859	          0.17091807	          0.09242806	          0.07466829	          0.05021692	          0.05013520	          0.05007375	          0.30465135	          0.33253295	          0.05003694	          0.05008577	          0.07286966	          0.22010292	          0.08781407	          0.08746257	          0.07881564	          0.11499919	          0.17965542	          0.05000445	          0.13427653	          0.15870948	          0.16175373	          0.28443045	          0.53215574	          0.39038500	          0.71838195	          0.61112783	          0.17570943	          0.05000210	          0.05000747	          0.07315645	
          1.90769448	         -2.92688980	          0.42013340	        -10.51527351	          2.39433989	          0.84963663	          0.00207052	         33.30858236	         -0.94179066	         -1.45007067	        -15.14930604	         -3.73982848	          5.60918842	        -21.61481878	        -22.36376653	         -0.37856919	        -21.44455323	          5.02626204	         18.80957824	         -0.16865211	         -4.04879745	          1.58203154	         38.48361814	          1.20014572	          2.31372076	          3.24967169	        -17.36142543	        -13.70018573	          9.28860541	          0.65805836	        -13.62722641	         14.79290001	         21.13005705	         49.17585472	         86.51662706	         86.51662706	          0.19852351	          0.05014299	          0.29688386	          0.05007042	          0.05007261	          0.05012022	          0.07506895	          0.05002947	          0.07822117	          0.05323165	          0.06029365	          0.07311788	          0.08295567	          0.10796391	          0.11530463	          0.11540996	          0.05049314	          0.06137729	          0.06073112	          0.05008471	          0.12760031	          0.09533726	          0.06066153	          0.06050019	          0.14134014	          0.05012938	          0.23591347	          0.06048293	          0.34910944	          0.32810361	          0.29180315	          0.05000246	          0.05000374	          0.05000041	          0.05000271	          0.05001489	          0.05000891	          0.62241137	          0.22839262	          0.12495950	          0.56323066	          0.52434075	          0.36512579	          0.05000415	          0.10765260	          0.10142389	          0.10271517	          0.06053670	          0.06050584	          0.14780926	          0.09348669	          0.06787296	          0.05049774	          0.05731306	          0.05033700	          0.06046545	          0.07319271	          0.10744897	          0.25103927	          0.16871864	          0.10041179	          0.14004932	          0.14135672	          0.07649452	          0.06177998	          0.05186235	          0.05164822	          0.05993988	          0.25195123	          0.27500945	          0.06504278	          0.06071562	          0.06047398	          0.18202770	          0.08589238	          0.08816208	          0.08830376	          0.09510647	          0.14857965	          0.05001106	          0.11104913	          0.13126044	          0.13377559	          0.23523740	          0.44011413	          0.32288358	          0.75573955	          0.78826467	          0.47192719	          0.07481527	          0.06046140	          0.06050430	
          1.92024510	         -2.91910368	          0.42528252	        -10.63851724	          2.41499410	          0.84730296	          0.00167182	         32.58192042	         -0.59560968	         -1.21110238	        -15.00215462	         -4.08716538	          5.35676959	        -22.76303602	        -24.11755054	         -0.36874482	        -24.04646845	          4.39001840	         18.87425186	         -0.54092447	         -3.90444116	          1.54217835	         36.05401841	          1.42545421	          2.03823246	          3.32782281	        -18.74181352	        -13.71348158	          9.79529549	          0.26532278	        -13.72391415	         15.20091934	         20.81732164	         50.04012546	         86.51662706	         86.51662706	          0.29015219	          0.35844419	          0.55799901	          0.18331604	          0.22537818	          0.38543482	          0.06209178	          0.05047117	          0.06470413	          0.05007441	          0.05024429	          0.06047634	          0.06861206	          0.08930226	          0.09539144	          0.11315442	          0.05004754	          0.05089809	          0.05028422	          0.25077734	          0.21367486	          0.13088145	          0.05017602	          0.05004717	          0.12193594	          0.13527621	          0.35656482	          0.05002382	          0.36049317	          0.35203155	          0.31721013	          0.05501943	          0.06032632	          0.06046105	          0.18494846	          0.16467178	          0.13903596	          0.68011237	          0.18888450	          0.10334378	          0.46580264	          0.50908492	          0.43898513	          0.05778672	          0.08903034	          0.08387911	          0.30688245	          0.05009682	          0.05004833	          0.12230735	          0.07733542	          0.05615634	          0.05035152	          0.05001474	          0.05003617	          0.05001728	          0.06054454	          0.08886798	          0.21437316	          0.13958672	          0.08403440	          0.18750647	          0.11690942	          0.06329930	          0.05110985	          0.05046681	          0.05038969	          0.05034645	          0.20836756	          0.22743702	          0.05379963	          0.05025736	          0.05003799	          0.15053904	          0.07311277	          0.07311279	          0.07310988	          0.07865546	          0.12288084	          0.05010854	          0.09184016	          0.10856148	          0.11063845	          0.23934403	          0.36403621	          0.28344659	          0.71562302	          0.88471401	          0.39029391	          0.12402578	          0.05000538	          0.05004036	
